<svg width="71" height="37" viewBox="0 0 71 37" fill="none" xmlns="http://www.w3.org/2000/svg">
<mask id="path-1-outside-1_126_40" maskUnits="userSpaceOnUse" x="0" y="0" width="71" height="37" fill="black">
<rect fill="white" width="71" height="37"/>
<path d="M38.2409 36.0789C40.1789 36.0789 43.4726 34.6075 46.2324 33.1656C48.697 31.8802 51.461 30.247 54.4489 28.3101L58.5687 25.5251L60.02 24.4825C63.4283 22.0075 66.6811 19.6039 69.6868 17.336L70 17.1005L69.6668 16.8935C66.2102 14.7464 62.7557 12.6402 59.3989 10.634L55.9297 8.62241L53.5167 7.31816C50.3575 5.65028 47.46 4.26827 44.8998 3.20889C41.0806 1.62719 36.3187 0.0780726 35.3318 1.66608C34.346 3.25304 37.8468 6.83367 40.9566 9.55777C42.5709 10.9703 44.4952 12.512 46.6875 14.1484C41.9929 13.6723 36.614 13.4211 31.0565 13.4211C16.486 13.4211 1 15.2361 1 18.5992C1 21.9623 16.486 23.7763 31.0565 23.7763C36.2903 23.7763 41.4096 23.5503 45.9214 23.1226C44.3502 24.5655 42.9471 25.9318 41.7438 27.1919C38.8873 30.1808 35.7176 34.0578 36.84 35.5523C37.1174 35.9212 37.6072 36.0789 38.2409 36.0789ZM69.0489 17.1426C66.1335 19.3391 62.9911 21.6596 59.7048 24.0464L56.4363 26.3511L54.1546 27.8593C51.1825 29.7857 48.4332 31.4105 45.9844 32.6884C38.903 36.3868 37.5242 35.566 37.2709 35.2286C37.0165 34.8902 36.6151 33.3369 42.1326 27.5639C43.4789 26.1556 45.0764 24.6118 46.8819 22.9754L47.4883 22.4247L46.6739 22.5077C41.9876 22.9859 36.5867 23.2382 31.0565 23.2382C13.3993 23.2382 1.5381 20.8399 1.5381 18.5992C1.5381 16.3586 13.3993 13.9592 31.0565 13.9592C36.9861 13.9592 42.7107 14.2461 47.6113 14.7874L48.6087 14.8977L47.8005 14.3039C45.2897 12.4574 43.1058 10.7243 41.3118 9.1521C35.3035 3.89097 35.5652 2.30927 35.788 1.94984C36.0139 1.58936 37.3129 0.649797 44.6938 3.70705C47.2382 4.75907 50.121 6.13373 53.2623 7.79215L56.9008 9.78057L59.1246 11.0964C62.3689 13.0365 65.7068 15.0701 69.0489 17.1426Z"/>
</mask>
<path d="M38.2409 36.0789C40.1789 36.0789 43.4726 34.6075 46.2324 33.1656C48.697 31.8802 51.461 30.247 54.4489 28.3101L58.5687 25.5251L60.02 24.4825C63.4283 22.0075 66.6811 19.6039 69.6868 17.336L70 17.1005L69.6668 16.8935C66.2102 14.7464 62.7557 12.6402 59.3989 10.634L55.9297 8.62241L53.5167 7.31816C50.3575 5.65028 47.46 4.26827 44.8998 3.20889C41.0806 1.62719 36.3187 0.0780726 35.3318 1.66608C34.346 3.25304 37.8468 6.83367 40.9566 9.55777C42.5709 10.9703 44.4952 12.512 46.6875 14.1484C41.9929 13.6723 36.614 13.4211 31.0565 13.4211C16.486 13.4211 1 15.2361 1 18.5992C1 21.9623 16.486 23.7763 31.0565 23.7763C36.2903 23.7763 41.4096 23.5503 45.9214 23.1226C44.3502 24.5655 42.9471 25.9318 41.7438 27.1919C38.8873 30.1808 35.7176 34.0578 36.84 35.5523C37.1174 35.9212 37.6072 36.0789 38.2409 36.0789ZM69.0489 17.1426C66.1335 19.3391 62.9911 21.6596 59.7048 24.0464L56.4363 26.3511L54.1546 27.8593C51.1825 29.7857 48.4332 31.4105 45.9844 32.6884C38.903 36.3868 37.5242 35.566 37.2709 35.2286C37.0165 34.8902 36.6151 33.3369 42.1326 27.5639C43.4789 26.1556 45.0764 24.6118 46.8819 22.9754L47.4883 22.4247L46.6739 22.5077C41.9876 22.9859 36.5867 23.2382 31.0565 23.2382C13.3993 23.2382 1.5381 20.8399 1.5381 18.5992C1.5381 16.3586 13.3993 13.9592 31.0565 13.9592C36.9861 13.9592 42.7107 14.2461 47.6113 14.7874L48.6087 14.8977L47.8005 14.3039C45.2897 12.4574 43.1058 10.7243 41.3118 9.1521C35.3035 3.89097 35.5652 2.30927 35.788 1.94984C36.0139 1.58936 37.3129 0.649797 44.6938 3.70705C47.2382 4.75907 50.121 6.13373 53.2623 7.79215L56.9008 9.78057L59.1246 11.0964C62.3689 13.0365 65.7068 15.0701 69.0489 17.1426Z" fill="#333B41"/>
<path d="M38.2409 36.0789C40.1789 36.0789 43.4726 34.6075 46.2324 33.1656C48.697 31.8802 51.461 30.247 54.4489 28.3101L58.5687 25.5251L60.02 24.4825C63.4283 22.0075 66.6811 19.6039 69.6868 17.336L70 17.1005L69.6668 16.8935C66.2102 14.7464 62.7557 12.6402 59.3989 10.634L55.9297 8.62241L53.5167 7.31816C50.3575 5.65028 47.46 4.26827 44.8998 3.20889C41.0806 1.62719 36.3187 0.0780726 35.3318 1.66608C34.346 3.25304 37.8468 6.83367 40.9566 9.55777C42.5709 10.9703 44.4952 12.512 46.6875 14.1484C41.9929 13.6723 36.614 13.4211 31.0565 13.4211C16.486 13.4211 1 15.2361 1 18.5992C1 21.9623 16.486 23.7763 31.0565 23.7763C36.2903 23.7763 41.4096 23.5503 45.9214 23.1226C44.3502 24.5655 42.9471 25.9318 41.7438 27.1919C38.8873 30.1808 35.7176 34.0578 36.84 35.5523C37.1174 35.9212 37.6072 36.0789 38.2409 36.0789ZM69.0489 17.1426C66.1335 19.3391 62.9911 21.6596 59.7048 24.0464L56.4363 26.3511L54.1546 27.8593C51.1825 29.7857 48.4332 31.4105 45.9844 32.6884C38.903 36.3868 37.5242 35.566 37.2709 35.2286C37.0165 34.8902 36.6151 33.3369 42.1326 27.5639C43.4789 26.1556 45.0764 24.6118 46.8819 22.9754L47.4883 22.4247L46.6739 22.5077C41.9876 22.9859 36.5867 23.2382 31.0565 23.2382C13.3993 23.2382 1.5381 20.8399 1.5381 18.5992C1.5381 16.3586 13.3993 13.9592 31.0565 13.9592C36.9861 13.9592 42.7107 14.2461 47.6113 14.7874L48.6087 14.8977L47.8005 14.3039C45.2897 12.4574 43.1058 10.7243 41.3118 9.1521C35.3035 3.89097 35.5652 2.30927 35.788 1.94984C36.0139 1.58936 37.3129 0.649797 44.6938 3.70705C47.2382 4.75907 50.121 6.13373 53.2623 7.79215L56.9008 9.78057L59.1246 11.0964C62.3689 13.0365 65.7068 15.0701 69.0489 17.1426Z" stroke="#333B41" mask="url(#path-1-outside-1_126_40)"/>
</svg>
